<?xml version="1.0" encoding="utf-8"?>
<!-- Generator: Adobe Illustrator 25.2.3, SVG Export Plug-In . SVG Version: 6.00 Build 0)  -->
<svg version="1.1" id="Layer_1" xmlns="http://www.w3.org/2000/svg" xmlns:xlink="http://www.w3.org/1999/xlink" x="0px" y="0px"
	 viewBox="0 0 100 73.8" style="enable-background:new 0 0 100 73.8;" xml:space="preserve">
<style type="text/css">
	.st0{clip-path:url(#SVGID_2_);fill:#DA1F26;}
</style>
<g>
	<defs>
		<rect id="SVGID_1_" x="0" y="0" width="100" height="73.8"/>
	</defs>
	<clipPath id="SVGID_2_">
		<use xlink:href="#SVGID_1_"  style="overflow:visible;"/>
	</clipPath>
	<path class="st0" d="M100,35.3v3.3c0,0.2-0.1,0.4-0.1,0.5c-0.2,1.4-0.3,2.9-0.5,4.3c-0.8,4.6-2.4,8.9-4.9,12.9
		c-3.7,6-8.8,10.6-15.2,13.8c-3.7,1.8-7.6,3-11.7,3.5c-0.9,0.1-1.8,0.2-2.7,0.3H29.7c-0.2,0-0.4-0.1-0.5-0.1c-3.5-0.2-7-1-10.2-2.5
		c-7.1-3.1-12.3-8.1-15.8-15c-1.5-3-2.5-6.3-2.9-9.7C0.2,45.7,0.1,44.9,0,44v-3.2c0-0.2,0.1-0.4,0.1-0.5c0.2-3.1,0.8-6,1.9-8.9
		c3-7.7,8.2-13.4,15.6-17.1c3.8-1.9,7.9-2.9,12.2-3.2c2.1-0.1,4.2,0,6.3,0.3c0.2,0,0.5-0.1,0.6-0.2c3-3.1,6.4-5.5,10.2-7.4
		c3.7-1.8,7.6-3,11.8-3.5c1-0.1,1.9-0.2,2.9-0.3h3c0.2,0,0.4,0.1,0.6,0.1c1.5,0.2,3,0.3,4.4,0.5c4.6,0.8,8.9,2.4,12.8,4.9
		c6.1,3.7,10.7,8.8,13.8,15.2c1.8,3.7,3,7.6,3.5,11.7C99.8,33.4,99.9,34.3,100,35.3 M44.1,14c0.1,0.1,0.1,0.1,0.1,0.1
		c2.1,1,4,2.2,5.9,3.6c0.1,0.1,0.4,0,0.5,0c5.1-3.2,10.6-4.3,16.5-3.3c5.8,1,10.5,3.9,14.2,8.6c4.1,5.2,5.7,11.2,4.5,17.8
		c-0.8,4.4-2.5,8.4-5.5,11.7c-5.5,6.1-12.4,8.6-20.5,7.5c-5-0.7-9.3-2.8-12.9-6.4c-4.6-4.6-9.2-9.2-13.8-13.8
		c-0.6-0.6-1.3-1.1-2.2-1.2c-1.5-0.2-2.9,0.6-3.6,2c-0.6,1.2-0.5,2.6,0.8,3.9c5.1,5,10.2,10.1,15.3,15.1c0.9,0.9,1.8,1.7,2.8,2.4
		c3.7,2.7,7.9,4.2,12.5,4.8c3.6,0.5,7.1,0.4,10.6-0.4c6.7-1.5,12.3-4.9,16.7-10.2c3.6-4.4,5.8-9.4,6.6-15c0.4-3.2,0.3-6.5-0.3-9.7
		c-1-5.2-3.2-9.9-6.8-13.8C78.9,9.9,70.4,6.5,60.3,7.2c-3.9,0.3-7.6,1.4-11,3.2C47.5,11.4,45.7,12.6,44.1,14 M41.6,66.8
		c-0.1-0.1-0.3-0.3-0.4-0.4c-2.1-2-4.2-3.9-6.3-5.9c-0.4-0.4-0.8-0.6-1.3-0.6c-2.1,0.1-4.2,0.1-6.3-0.4C17.1,57.2,11.1,46,14.9,36.2
		c3-7.7,11.2-12.4,19.4-11c3.6,0.7,6.8,2.2,9.5,4.9c3.2,3.3,6.5,6.5,9.7,9.8c0.7,0.7,1.6,1.1,2.6,0.9c1.3-0.2,2.4-0.8,2.8-2.1
		c0.5-1.3,0.2-2.5-0.7-3.5c-3.4-3.4-6.7-7-10.3-10.3c-6.9-6.4-15-8.3-23.9-5.6C12.1,23.1,5,35.5,7.8,47.8c2.5,11.2,12.3,19,23.7,19
		c3.2,0,6.4,0,9.6,0C41.2,66.8,41.4,66.8,41.6,66.8"/>
</g>
</svg>
